<?xml version="1.0" encoding="utf-8"?>
<?xml-stylesheet type="text/xsl" href="rss1.xsl"?>
<rss version="2.0" xmlns:atom="http://www.w3.org/2005/Atom" xmlns:content="http://purl.org/rss/1.0/modules/content/" xmlns:dc="http://purl.org/dc/elements/1.1/" xmlns:media="http://search.yahoo.com/mrss/">
<channel>
 <title>Getty</title>
 <link>http://www.gettyimg.com/</link>
 <atom:link href="http://www.gettyimg.com/" rel="self" type="application/rss+xml" />

 
                <item>
                <title><![CDATA[【MASTER &amp; MASTER RIP】MASTER - Troye Sivan - Rush (Master 1080p)]]></title>
                <link><![CDATA[https://sharemania.us/threads/troye-sivan-rush-master-1080p.225340/]]></link>
                <description><![CDATA[<article>
<blockquote class="messageText SelectQuoteContainer ugc baseHtml">
<img src="https://i.imgur.com/VfmBAco.png" class="bbCodeImage LbImage" alt="[​IMG]" data-url="https://i.imgur.com/VfmBAco.png" style=""><br>
<br>
<div class="ToggleTriggerAnchor bbCodeSpoilerContainer">
<button type="button" class="button bbCodeSpoilerButton ToggleTrigger Tooltip JsOnly" data-target="> .SpoilerTarget"><span>Spoiler: <span class="SpoilerTitle">MediaInfo</span></span></button>
<div class="SpoilerTarget bbCodeSpoilerText">General<br>
Complete name : Troye Sivan - Rush (1080p) [MASTER].mp4<br>
Format : MPEG-4<br>
Format profile : Base Media / Version 2<br>
Codec ID : mp42 (mp42/mp41)<br>
File size : 802 MiB<br>
Duration : 3mn 42s<br>
Overall bit rate mode : Variable<br>
Overall bit rate : 30.3 Mbps<br>
Encoded date : UTC 2023-06-28 17:31:29<br>
Tagged date : UTC 2023-06-28 17:34:51<br>
©TIM : 00:00:00:00<br>
©TSC : 25<br>
©TSZ : 1<br>
<br>
Video<br>
ID : 1<br>
Format : AVC<br>
Format/Info : Advanced Video Codec<br>
Format profile : Main@L4.1<br>
Format settings, CABAC : Yes<br>
Format settings, ReFrames : 4 frames<br>
Codec ID : avc1<br>
Codec ID/Info : Advanced Video Coding<br>
Duration : 3mn 42s<br>
Bit rate mode : Constant<br>
Bit rate : 30.0 Mbps<br>
Width : 1 440 pixels<br>
Height : 1 080 pixels<br>
Display aspect ratio : 4:3<br>
Frame rate mode : Constant<br>
Frame rate : 25.000 fps<br>
Color space : YUV<br>
Chroma subsampling : 4:2:0<br>
Bit depth : 8 bits<br>
Scan type : Progressive<br>
Bits/(Pixel*Frame) : 0.772<br>
Stream size : 794 MiB (99%)<br>
Language : English<br>
Encoded date : UTC 2023-06-28 17:31:33<br>
Tagged date : UTC 2023-06-28 17:31:33<br>
Color range : Limited<br>
Color primaries : BT.709<br>
Transfer characteristics : BT.709<br>
Matrix coefficients : BT.709<br>
<br>
Audio<br>
ID : 2<br>
Format : AAC<br>
Format/Info : Advanced Audio Codec<br>
Format profile : LC<br>
Codec ID : 40<br>
Duration : 3mn 42s<br>
Source duration : 3mn 42s<br>
Bit rate mode : Variable<br>
Bit rate : 317 Kbps<br>
Maximum bit rate : 450 Kbps<br>
Channel(s) : 2 channels<br>
Channel positions : Front: L R<br>
Sampling rate : 48.0 KHz<br>
Frame rate : 46.875 fps (1024 spf)<br>
Compression mode : Lossy<br>
Stream size : 8.41 MiB (1%)<br>
Source stream size  : 8.41 MiB (1%)<br>
Language : English<br>
Encoded date : UTC 2023-06-28 17:31:31<br>
Tagged date : UTC 2023-06-28 17:31:31</div>
</div><br>
<div class="bbCodeBlock bbCodeVfcHH HiddenContent">
<div class="attribution type">Hidden Content:</div>
<blockquote>You must reply before you can see the hidden data contained here.</blockquote>
</div>
<div class="messageTextEndMarker">&nbsp;</div>
</blockquote>
</article>]]></description>
                <author><![CDATA[Ardy]]></author>
                </item>

                </channel></rss>